<svg xmlns="http://www.w3.org/2000/svg" xmlns:xlink="http://www.w3.org/1999/xlink" xmlns:lucid="lucid" width="1109" height="1316"><g transform="translate(0 0)" lucid:page-tab-id="0_0"><path d="M137.3 243.45c0-4.42 3.57-8.38 7.97-8.85l144.1-15.53c4.38-.48 7.94 2.72 7.94 7.14v87.9c0 4.4-3.57 8-8 8h-144c-4.4 0-8-3.6-8-8z" stroke="#000" stroke-opacity="0" stroke-width="2" fill="#ff8839"/><use xlink:href="#a" transform="matrix(1,0,0,1,142.31261513669915,240.52238805970154) translate(27.075000000000003 42.1)"/><use xlink:href="#b" transform="matrix(1,0,0,1,142.31261513669915,240.52238805970154) translate(71.075 42.1)"/><path d="M490.6 413c3.7-2.4 9.72-2.4 13.42 0l66.58 43.24c3.7 2.4 3.7 6.3 0 8.7l-66.58 43.24c-3.7 2.4-9.7 2.4-13.42 0l-66.58-43.23c-3.7-2.4-3.7-6.3 0-8.7z" stroke="#fe5900" stroke-width="4" fill="#fff"/><use xlink:href="#c" transform="matrix(1,0,0,1,422.3126151366992,413.6567164179104) translate(42.5 50.6)"/><path d="M218.66 191.54V210.3" stroke="#333" fill="none"/><path d="M219.16 191.56h-1v-.52h1z" fill="#333"/><path d="M218.66 225.07l-4.64-14.27h9.27z" stroke="#333" fill="#333"/><path d="M577.8 270.15h102.63" stroke="#333" fill="none"/><path d="M577.83 270.65h-.52v-1h.53z" fill="#333"/><path d="M695.2 270.15l-14.27 4.63v-9.27z" stroke="#333" fill="#333"/><use xlink:href="#d" transform="matrix(1,0,0,1,607.2820595811436,247.21592039801007) translate(0.004999999999999005 12.622222222222224)"/><use xlink:href="#e" transform="matrix(1,0,0,1,607.2820595811436,247.21592039801007) translate(20.998209876543207 12.622222222222224)"/><path d="M297.8 270.15h103.13" stroke="#333" fill="none"/><path d="M297.83 270.65h-.52v-1h.53z" fill="#333"/><path d="M415.7 270.15l-14.27 4.63v-9.27z" stroke="#333" fill="#333"/><path d="M400 22.03c0-4.42 3.58-8 8-8h514.75c4.42 0 8 3.58 8 8v19.63c0 4.42-3.58 8-8 8H408c-4.42 0-8-3.58-8-8z" stroke="#000" stroke-opacity="0" stroke-width="2" fill="#fff" fill-opacity="0"/><use xlink:href="#f" transform="matrix(1,0,0,1,403.99999999999994,18.029850746167927) translate(203.04209876543212 23.657777777777778)"/><use xlink:href="#g" transform="matrix(1,0,0,1,403.99999999999994,18.029850746167927) translate(264.81 57.80444444444444)"/><path d="M574.97 48.5h186.06M575 48.5h-1.03M761 48.5h1.03" stroke="#a9afb8" stroke-width="2" fill="none"/><path d="M400 57.66c0-4.42 3.58-8 8-8h515.34c4.42 0 8 3.58 8 8v.3c0 4.43-3.58 8-8 8H408c-4.42 0-8-3.57-8-8z" stroke="#000" stroke-opacity="0" stroke-width="2" fill="#fff" fill-opacity="0"/><use xlink:href="#h" transform="matrix(1,0,0,1,404.00000000000034,53.656761037214615) translate(136.79986625514405 14.917037037037037)"/><use xlink:href="#i" transform="matrix(1,0,0,1,404.00000000000034,53.656761037214615) translate(204.7409156378601 14.917037037037037)"/><use xlink:href="#j" transform="matrix(1,0,0,1,404.00000000000034,53.656761037214615) translate(251.43710905349795 14.917037037037037)"/><use xlink:href="#k" transform="matrix(1,0,0,1,404.00000000000034,53.656761037214615) translate(263.8865946502058 14.917037037037037)"/><use xlink:href="#l" transform="matrix(1,0,0,1,404.00000000000034,53.656761037214615) translate(342.83247942386834 14.917037037037037)"/><use xlink:href="#m" transform="matrix(1,0,0,1,404.00000000000034,53.656761037214615) translate(359.82836419753085 14.917037037037037)"/><path d="M880 226.2c0-4.4 3.58-8 8-8h144c4.42 0 8 3.6 8 8v74.9c0 4.42-3.58 8-8 8H888c-4.42 0-8-3.58-8-8z" fill="none"/><path d="M880 309.1c5.52 0 10-4.47 10-10v-25.44c0-5.53 4.48-10 10-10-5.52 0-10-4.48-10-10V228.2c0-5.5-4.48-10-10-10" stroke="#333" fill="none"/><use xlink:href="#n" transform="matrix(1,0,0,1,914.9999999999999,223.2089552238807) translate(1.5249999999999986 22.5)"/><use xlink:href="#o" transform="matrix(1,0,0,1,914.9999999999999,223.2089552238807) translate(45.525 22.5)"/><use xlink:href="#p" transform="matrix(1,0,0,1,914.9999999999999,223.2089552238807) translate(4.574999999999996 44.1)"/><use xlink:href="#q" transform="matrix(1,0,0,1,914.9999999999999,223.2089552238807) translate(51.525 44.1)"/><use xlink:href="#r" transform="matrix(1,0,0,1,914.9999999999999,223.2089552238807) translate(29.025 65.7)"/><use xlink:href="#s" transform="matrix(1,0,0,1,914.9999999999999,223.2089552238807) translate(62.975 65.7)"/><path d="M697.3 226.2c0-4.4 3.6-8 8-8h144c4.43 0 8 3.6 8 8v87.9c0 4.4-3.57 8-8 8h-144c-4.4 0-8-3.6-8-8z" stroke="#333" fill="#ff8839"/><path d="M713.3 218.2v103.9m128-103.9v103.9" stroke="#333" fill="none"/><use xlink:href="#t" transform="matrix(1,0,0,1,722.3126151366992,223.20895522388065) translate(11.024999999999999 39.8)"/><use xlink:href="#u" transform="matrix(1,0,0,1,722.3126151366992,223.20895522388065) translate(9.049999999999997 61.4)"/><use xlink:href="#v" transform="matrix(1,0,0,1,722.3126151366992,223.20895522388065) translate(65.95 61.4)"/><path d="M137.3 416.66c0-4.42 3.6-8 8-8h144c4.43 0 8 3.58 8 8v87.88c0 4.42-3.57 8-8 8h-144c-4.4 0-8-3.58-8-8z" stroke="#000" stroke-opacity="0" stroke-width="2" fill="#ff8839"/><use xlink:href="#w" transform="matrix(1,0,0,1,142.31261513669915,413.6567164179104) translate(52.05 50.6)"/><path d="M344.83 461.1H313.7v-1h31.13zm73.97 0h-47.02v-1h47.02zM419.2 461.1h-.4v-1h.6zM313.2 465.23l-14.27-4.63 14.27-4.64z" fill="#333"/><path d="M313.7 465.92l-16.4-5.32 16.4-5.33zm-13.15-5.32l12.15 3.94v-7.9z" fill="#333"/><use xlink:href="#x" transform="matrix(1,0,0,1,344.83082993771603,449.79701492537305) translate(0.005000000000000782 14.4)"/><path d="M777.3 323.1v30.84c0 6.62-5.36 12-12 12h-256c-6.6 0-12 5.37-12 12v14.96" stroke="#333" fill="none"/><path d="M777.8 323.1h-1v-.5h1z" fill="#333"/><path d="M497.3 407.66l-4.62-14.26h9.27z" stroke="#333" fill="#333"/><path d="M136.8 427.35H72c-6.63 0-12-5.37-12-12V151.1c0-6.62 5.37-12 12-12h50.27" stroke="#333" fill="none"/><path d="M137.3 427.85h-.5v-1h.5z" fill="#333"/><path d="M137.04 139.1l-14.27 4.64v-9.27z" stroke="#333" fill="#333"/><path d="M296.04 772.24h106.88" stroke="#333" fill="none"/><path d="M296.05 772.74h-.46l-.1-1h.55z" fill="#333"/><path d="M417.68 772.24l-14.27 4.63v-9.27z" stroke="#333" fill="#333"/><path d="M490.6 724.65c3.7-2.4 9.72-2.4 13.42 0l66.58 43.23c3.7 2.4 3.7 6.3 0 8.72l-66.58 43.22c-3.7 2.4-9.7 2.4-13.42 0l-66.58-43.22c-3.7-2.4-3.7-6.3 0-8.72z" stroke="#fe5900" stroke-width="4" fill="#fff"/><use xlink:href="#c" transform="matrix(1,0,0,1,422.3126151366992,725.2985074626866) translate(42.5 50.6)"/><path d="M490.6 568.83c3.7-2.4 9.72-2.4 13.42 0l66.58 43.23c3.7 2.4 3.7 6.3 0 8.7L504.02 664c-3.7 2.4-9.7 2.4-13.42 0l-66.58-43.23c-3.7-2.4-3.7-6.3 0-8.7z" stroke="#fe5900" stroke-width="4" fill="#fff"/><use xlink:href="#c" transform="matrix(1,0,0,1,422.3126151366992,569.4776119402986) translate(42.5 50.6)"/><path d="M787.3 513.54v90.88c0 6.63-5.36 12-12 12H591.7" stroke="#333" fill="none"/><path d="M787.8 513.55h-1v-.5h1z" fill="#333"/><path d="M576.94 616.42l14.27-4.64v9.27z" stroke="#333" fill="#333"/><path d="M339.3 690.24H223l-2.8.8-1.85 2.06-.55 2.37-.97-.23.6-2.6 2.22-2.48 3.2-.92h116.46zm158.5-12.47l-.4 3.2-1.25 3-2 2.6-2.6 2-3 1.25-3.2.42H375.3v-1H485.3l3.02-.4 2.75-1.14 2.4-1.84 1.83-2.38 1.14-2.76.4-3.02v-9.47h1z" fill="#333"/><path d="M497.8 667.77v.48h-1v-.56zM217.3 710.12l-4.62-14.27h9.27z" fill="#333"/><path d="M217.3 711.74l-5.3-16.4h10.64zm-3.93-15.4l3.94 12.16 3.96-12.15z" fill="#333"/><use xlink:href="#y" transform="matrix(1,0,0,1,339.31261513669915,678.9360657929275) translate(0.004999999999999005 14.4)"/><path d="M217.8 604.4l.4 3 1.15 2.76 1.83 2.4 2.4 1.82 2.75 1.14 3.02.4h23.54v1h-23.62l-3.2-.42-3-1.25-2.6-2-2-2.6-1.25-3-.42-3.2v-75.53h1zm201 11.52v1H279.84v-1zM419.2 616.92h-.4v-1h.6zM221.95 528.42h-9.27l4.63-14.26z" fill="#333"/><path d="M222.64 528.92H212l5.3-16.38zm-9.27-1h7.9l-3.96-12.15z" fill="#333"/><use xlink:href="#x" transform="matrix(1,0,0,1,252.8905314227906,605.6179104477613) translate(0.005000000000000782 14.4)"/><path d="M120.93 495.37h-11.58l-3.02.4-2.76 1.13-2.4 1.84-1.82 2.4-1.14 2.74-.4 3.02v344.62l.4 3.02 1.15 2.75 1.83 2.38 2.4 1.84 2.75 1.14 3.02.4H265.7v1H109.28l-3.2-.43-3-1.24-2.6-2-2-2.6-1.25-3-.42-3.2V506.82l.43-3.2 1.25-3 2-2.6 2.6-2 3-1.24 3.2-.43h11.65zM497.8 851.6l-.4 3.2-1.25 3-2 2.6-2.6 2-3 1.23-3.2.42h-192.7v-1h192.63l3.02-.4 2.75-1.13 2.4-1.84 1.83-2.4 1.14-2.74.4-3.02v-27.47h1z" fill="#333"/><path d="M497.8 823.6v.47h-1v-.55zM135.7 494.87l-14.27 4.63v-9.27z" fill="#333"/><path d="M137.3 494.87l-16.37 5.32v-10.66zm-15.37 3.94l12.15-3.93-12.15-3.95z" fill="#333"/><use xlink:href="#x" transform="matrix(1,0,0,1,265.6999157134618,852.7542211380938) translate(0.005000000000000782 14.4)"/><path d="M490.6 880.48c3.7-2.4 9.72-2.4 13.42 0l66.58 43.22c3.7 2.4 3.7 6.3 0 8.72l-66.58 43.22c-3.7 2.4-9.7 2.4-13.42 0l-66.58-43.22c-3.7-2.4-3.7-6.3 0-8.72z" stroke="#fe5900" stroke-width="4" fill="#fff"/><use xlink:href="#c" transform="matrix(1,0,0,1,422.3126151366992,881.1194029850745) translate(42.5 50.6)"/><path d="M787.3 841.3v74.76c0 6.63-5.36 12-12 12H591.7" stroke="#333" fill="none"/><path d="M787.8 841.3h-1v-.5h1z" fill="#333"/><path d="M576.94 928.06l14.27-4.64v9.27z" stroke="#333" fill="#333"/><path d="M120.93 461.1h-48.9l-3 .4-2.77 1.13-2.4 1.84-1.82 2.4-1.14 2.74-.4 3.03v443.4l.4 3 1.14 2.77 1.83 2.4 2.4 1.82 2.75 1.14 3 .4h188.65v1H71.97l-3.2-.42-3-1.24-2.6-2-2-2.6-1.25-3-.42-3.2V472.55l.42-3.2 1.24-3 2-2.6 2.6-2 3-1.24 3.2-.42h48.97zM418.8 927.56v1H287.62v-1zM419.2 928.56h-.4v-1h.6z" fill="#333"/><path d="M135.7 460.6l-14.27 4.63v-9.27z" fill="#333"/><path d="M137.3 460.6l-16.37 5.32v-10.65zm-15.37 3.94l12.15-3.94-12.15-3.95z" fill="#333"/><use xlink:href="#x" transform="matrix(1,0,0,1,260.67382607672744,917.2597014925373) translate(0.005000000000000782 14.4)"/><path d="M324.58 990.5h-93.9l-3 .4-2.76 1.14-2.4 1.83-1.83 2.4-1.15 2.75-.4 3v13.04h-1v-13.1l.43-3.2 1.24-3 2-2.6 2.6-2 3-1.24 3.2-.42h93.96zm173.23-10.56l-.34 2.7-1.06 2.54-1.7 2.2-2.2 1.7-2.55 1.06-2.73.36H360.58v-1h126.58l2.52-.33 2.3-.96 2-1.52 1.55-2 .95-2.3.34-2.57z" fill="#333"/><path d="M497.8 979.4v.5h-1v-.56zM218.66 1029.82l-4.64-14.26h9.27z" fill="#333"/><path d="M218.66 1031.44l-5.33-16.38h10.65zm-3.95-15.38l3.96 12.14 3.94-12.14z" fill="#333"/><use xlink:href="#y" transform="matrix(1,0,0,1,324.57675376855224,979.2) translate(0.004999999999999005 14.4)"/><path d="M490.6 1036.3c3.7-2.4 9.72-2.4 13.42 0l66.58 43.22c3.7 2.4 3.7 6.3 0 8.72l-66.58 43.22c-3.7 2.4-9.7 2.4-13.42 0l-66.58-43.22c-3.7-2.4-3.7-6.3 0-8.72z" stroke="#fe5900" stroke-width="4" fill="#fff"/><use xlink:href="#c" transform="matrix(1,0,0,1,422.3126151366992,1036.9402985074623) translate(42.5 50.6)"/><path d="M220.5 1083.88h182.42M220.5 1083.88h-.5" stroke="#333" fill="none"/><path d="M417.68 1083.88l-14.26 4.64v-9.27z" stroke="#333" fill="#333"/><path d="M120.93 446.75h-78.9l-3 .4-2.77 1.14-2.4 1.82-1.82 2.4-1.14 2.74-.4 3.02v704.88l.4 3.02 1.14 2.75 1.83 2.4 2.4 1.83 2.75 1.14 3 .4H362v1h-320l-3.22-.42-3-1.25-2.6-2-2-2.6-1.24-3-.42-3.2v-705l.42-3.23 1.24-3 2-2.6 2.6-2 3-1.23 3.2-.42h78.97zm376.88 716.48l-.4 3.2-1.25 3-2 2.6-2.6 2-3 1.25-3.2.42h-96.42v-1h96.35l3.02-.4 2.75-1.14 2.4-1.84 1.83-2.38 1.14-2.76.4-3.02v-27.46h1z" fill="#333"/><path d="M497.8 1135.23v.48h-1v-.54zM135.7 446.25l-14.27 4.63v-9.27z" fill="#333"/><path d="M137.3 446.25l-16.37 5.32v-10.64zm-15.37 3.95l12.15-3.95-12.15-3.95z" fill="#333"/><use xlink:href="#x" transform="matrix(1,0,0,1,361.9777623418132,1164.3960121828695) translate(0.005000000000000782 14.4)"/><path d="M165.55 719.3c2.08-3.9 7.34-7.06 11.76-7.06h80c4.43 0 9.7 3.16 11.78 7.06l24.47 45.88c2.08 3.9 2.08 10.22 0 14.12l-24.47 45.88c-2.08 3.9-7.35 7.06-11.77 7.06h-80c-4.4 0-9.67-3.16-11.75-7.06l-24.47-45.88c-2.08-3.9-2.08-10.22 0-14.12z" stroke="#333" fill="#ff8839"/><use xlink:href="#z" transform="matrix(1,0,0,1,142.31261513669915,717.2388059701491) translate(13.549999999999997 37)"/><use xlink:href="#A" transform="matrix(1,0,0,1,142.31261513669915,717.2388059701491) translate(107.45 37)"/><use xlink:href="#B" transform="matrix(1,0,0,1,142.31261513669915,717.2388059701491) translate(60.5 58.6)"/><use xlink:href="#C" transform="matrix(1,0,0,1,142.31261513669915,717.2388059701491) translate(54.05 80.20000000000002)"/><path d="M166.9 1039c2.07-3.9 7.34-7.06 11.76-7.06h80c4.4 0 9.68 3.16 11.76 7.06l24.47 45.88c2.07 3.9 2.07 10.22 0 14.12l-24.48 45.88c-2.08 3.9-7.35 7.06-11.76 7.06h-80c-4.42 0-9.7-3.16-11.77-7.06L142.4 1099c-2.08-3.9-2.08-10.22 0-14.12z" stroke="#333" fill="#ff8839"/><use xlink:href="#z" transform="matrix(1,0,0,1,143.65630756834955,1036.9402985074626) translate(13.549999999999997 37)"/><use xlink:href="#A" transform="matrix(1,0,0,1,143.65630756834955,1036.9402985074626) translate(107.45 37)"/><use xlink:href="#B" transform="matrix(1,0,0,1,143.65630756834955,1036.9402985074626) translate(60.5 58.6)"/><use xlink:href="#C" transform="matrix(1,0,0,1,143.65630756834955,1036.9402985074626) translate(54.05 80.20000000000002)"/><path d="M237.3 40c0 11.05-8.94 20-20 20-11.03 0-20-8.95-20-20s8.97-20 20-20c11.06 0 20 8.95 20 20z" stroke="#333"/><path d="M811.34 1220c0 11.05-8.95 20-20 20-11.04 0-20-8.95-20-20s8.96-20 20-20c11.05 0 20 8.95 20 20z" stroke="#333" fill="#fff"/><path d="M803.34 1220c0 6.63-5.37 12-12 12-6.62 0-12-5.37-12-12s5.38-12 12-12c6.63 0 12 5.37 12 12z" stroke="#333"/><path d="M417.3 243.45c0-4.42 3.57-8.38 7.97-8.85l144.1-15.53c4.38-.48 7.94 2.72 7.94 7.14v87.9c0 4.4-3.57 8-8 8h-144c-4.4 0-8-3.6-8-8z" stroke="#000" stroke-opacity="0" stroke-width="2" fill="#ff8839"/><use xlink:href="#D" transform="matrix(1,0,0,1,422.3126151366992,240.5223880597016) translate(31.074999999999996 31.299999999999997)"/><use xlink:href="#E" transform="matrix(1,0,0,1,422.3126151366992,240.5223880597016) translate(63.975 31.299999999999997)"/><use xlink:href="#F" transform="matrix(1,0,0,1,422.3126151366992,240.5223880597016) translate(66.025 52.9)"/><path d="M697.3 400.54c0-4.42 3.6-8 8-8h164c4.43 0 8 3.58 8 8v104c0 4.42-3.57 8-8 8h-164c-4.4 0-8-3.58-8-8z" stroke="#333" fill="#ff8839"/><path d="M715.3 392.54v120m144-120v120" stroke="#333" fill="none"/><use xlink:href="#G" transform="matrix(1,0,0,1,724.8126151366992,397.53731343283573) translate(14.574999999999996 37)"/><use xlink:href="#H" transform="matrix(1,0,0,1,724.8126151366992,397.53731343283573) translate(48 58.6)"/><use xlink:href="#I" transform="matrix(1,0,0,1,724.8126151366992,397.53731343283573) translate(5.574999999999996 80.20000000000002)"/><use xlink:href="#J" transform="matrix(1,0,0,1,724.8126151366992,397.53731343283573) translate(109.42500000000001 80.20000000000002)"/><path d="M619.57 461.1h-43.74v-1h43.74zm60.86 0h-27.86v-1h27.86z" fill="#333"/><path d="M575.84 461.1h-.6l.17-1h.44zM695.2 460.6l-14.27 4.63v-9.27z" fill="#333"/><path d="M696.8 460.6l-16.37 5.32v-10.65zm-15.37 3.94l12.15-3.94-12.15-3.95z" fill="#333"/><use xlink:href="#K" transform="matrix(1,0,0,1,619.5694003346991,449.79701492166646) translate(0.004999999999999005 14.4)"/><path d="M697.3 728.3c0-4.42 3.6-8 8-8h164c4.43 0 8 3.58 8 8v104c0 4.42-3.57 8-8 8h-164c-4.4 0-8-3.58-8-8z" stroke="#333" fill="#ff8839"/><path d="M715.3 720.3v120m144-120v120" stroke="#333" fill="none"/><use xlink:href="#G" transform="matrix(1,0,0,1,724.8126151366992,725.2985074626866) translate(14.574999999999996 37)"/><use xlink:href="#H" transform="matrix(1,0,0,1,724.8126151366992,725.2985074626866) translate(48 58.6)"/><use xlink:href="#I" transform="matrix(1,0,0,1,724.8126151366992,725.2985074626866) translate(5.574999999999996 80.20000000000002)"/><use xlink:href="#L" transform="matrix(1,0,0,1,724.8126151366992,725.2985074626866) translate(109.42500000000001 80.20000000000002)"/><path d="M618.07 772.74h-42.24v-1h42.24zm62.36 0h-26.36v-1h26.36z" fill="#333"/><path d="M575.84 772.74h-.6l.17-1h.44zM695.2 772.24l-14.27 4.63v-9.27z" fill="#333"/><path d="M696.8 772.24l-16.37 5.32v-10.64zm-15.37 3.95l12.15-3.96-12.15-3.95z" fill="#333"/><g><use xlink:href="#y" transform="matrix(1,0,0,1,618.0694003346991,761.4388059664427) translate(0.004999999999999005 14.4)"/></g><path d="M138.66 112.4c0-4.4 3.56-8.38 7.95-8.85l144.1-15.53c4.4-.47 7.96 2.73 7.96 7.14v87.88c0 4.42-3.6 8-8 8h-144c-4.42 0-8-3.58-8-8z" stroke="#000" stroke-opacity="0" stroke-width="2" fill="#ff8839"/><g><use xlink:href="#M" transform="matrix(1,0,0,1,143.65630756834958,109.47761194029854) translate(30.525 42.1)"/><use xlink:href="#N" transform="matrix(1,0,0,1,143.65630756834958,109.47761194029854) translate(64.525 42.1)"/></g><path d="M136.8 270.36h-27.5c-6.6 0-12-5.38-12-12v-63.8c0-6.64 5.4-12 12-12h12.97" stroke="#333" fill="none"/><path d="M137.3 270.86h-.5v-1h.5z" fill="#333"/><path d="M137.04 182.55l-14.27 4.64v-9.28z" stroke="#333" fill="#333"/><path d="M217.3 61v18.55" stroke="#333" fill="none"/><path d="M217.3 60.5l.5-.02V61h-1v-.56z" fill="#333"/><path d="M217.3 94.3l-4.62-14.25h9.27z" stroke="#333" fill="#333"/><path d="M790 1152.94v30.22" stroke="#333" fill="none"/><path d="M790.5 1152.95h-1v-.5h1z" fill="#333"/><path d="M790 1197.93l-4.64-14.27h9.28z" stroke="#333" fill="#333"/><path d="M700 1039.94c0-4.42 3.58-8 8-8h164c4.42 0 8 3.58 8 8v104c0 4.42-3.58 8-8 8H708c-4.42 0-8-3.58-8-8z" stroke="#333" fill="#ff8839"/><path d="M718 1031.94v120m144-120v120" stroke="#333" fill="none"/><g><use xlink:href="#G" transform="matrix(1,0,0,1,727.4999999999999,1036.9402985074623) translate(14.574999999999996 37)"/><use xlink:href="#O" transform="matrix(1,0,0,1,727.4999999999999,1036.9402985074623) translate(43.55 58.6)"/><use xlink:href="#P" transform="matrix(1,0,0,1,727.4999999999999,1036.9402985074623) translate(13.074999999999996 80.20000000000002)"/></g><path d="M619.4 1084.38h-43.57v-1h43.58zm63.72 0h-27.7v-1h27.7z" fill="#333"/><path d="M575.84 1084.38h-.6l.17-1h.44zM697.88 1083.88l-14.26 4.64v-9.27z" fill="#333"/><path d="M699.5 1083.88l-16.38 5.32v-10.64zm-15.38 3.95l12.14-3.95-12.14-3.95z" fill="#333"/><g><use xlink:href="#y" transform="matrix(1,0,0,1,619.4130927663496,1073.0805970112185) translate(0.004999999999999005 14.4)"/></g><path d="M40 1248c0-4.42 3.58-8 8-8h224c4.42 0 8 3.58 8 8v44c0 4.42-3.58 8-8 8H48c-4.42 0-8-3.58-8-8z" stroke="#000" stroke-opacity="0" fill="#fff" fill-opacity="0"/><defs><path fill="#fff" d="M44-68c0 29 11 47 38 47 30 0 42-19 51-41l28 9C148-21 126 4 82 4 31 4 10-29 12-85c3-77 74-140 146-93 12 8 15 23 18 40l-31 5c-1-22-13-36-36-36-52 0-65 49-65 101" id="Q"/><path fill="#fff" d="M30-147c31-64 166-65 159 27C183-49 158 1 86 4 9 8 1-88 30-147zM88-20c53 0 68-48 68-100 0-31-11-51-44-50-52 1-68 46-68 97 0 32 13 53 44 53" id="R"/><path fill="#fff" d="M133-28C103 26-5 8 13-77c13-62 24-115 90-117 29-1 46 15 56 35l19-102h32L160 0h-30zM45-64c-2 27 10 43 35 43 54-1 69-50 69-103 0-29-15-46-42-46-53-1-58 58-62 106" id="S"/><path fill="#fff" d="M111-194c62-3 86 47 72 106H45c-7 38 6 69 45 68 27-1 43-14 53-32l24 11C152-15 129 4 87 4 38 3 12-23 12-71c0-70 32-119 99-123zm44 81c14-66-71-72-95-28-4 8-8 17-11 28h106" id="T"/><g id="a"><use transform="matrix(0.05,0,0,0.05,0,0)" xlink:href="#Q"/><use transform="matrix(0.05,0,0,0.05,9,0)" xlink:href="#R"/><use transform="matrix(0.05,0,0,0.05,19,0)" xlink:href="#S"/><use transform="matrix(0.05,0,0,0.05,29,0)" xlink:href="#T"/></g><path fill="#fff" d="M66-151c12-25 30-51 66-40l-6 26C45-176 58-65 38 0H6l36-190h30" id="U"/><path fill="#fff" d="M89 0H52L20-190h33L74-25l89-165h34" id="V"/><path fill="#fff" d="M50-231l6-30h32l-6 30H50zM6 0l37-190h31L37 0H6" id="W"/><path fill="#fff" d="M188 0h-37l-8-164L71 0H34L18-190h31l8 164 75-164h34l8 164 74-164h31" id="X"/><g id="b"><use transform="matrix(0.05,0,0,0.05,0,0)" xlink:href="#U"/><use transform="matrix(0.05,0,0,0.05,5.95,0)" xlink:href="#T"/><use transform="matrix(0.05,0,0,0.05,15.949999999999998,0)" xlink:href="#V"/><use transform="matrix(0.05,0,0,0.05,24.95,0)" xlink:href="#W"/><use transform="matrix(0.05,0,0,0.05,28.899999999999995,0)" xlink:href="#T"/><use transform="matrix(0.05,0,0,0.05,38.9,0)" xlink:href="#X"/></g><path fill="#333" d="M135-143c-3-34-86-38-87 0 15 53 115 12 119 90S17 21 10-45l28-5c4 36 97 45 98 0-10-56-113-15-118-90-4-57 82-63 122-42 12 7 21 19 24 35" id="Y"/><path fill="#333" d="M84 4C-5 8 30-112 23-190h32v120c0 31 7 50 39 49 72-2 45-101 50-169h31l1 190h-30c-1-10 1-25-2-33-11 22-28 36-60 37" id="Z"/><path fill="#333" d="M96-169c-40 0-48 33-48 73s9 75 48 75c24 0 41-14 43-38l32 2c-6 37-31 61-74 61-59 0-76-41-82-99-10-93 101-131 147-64 4 7 5 14 7 22l-32 3c-4-21-16-35-41-35" id="aa"/><path fill="#333" d="M100-194c63 0 86 42 84 106H49c0 40 14 67 53 68 26 1 43-12 49-29l28 8c-11 28-37 45-77 45C44 4 14-33 15-96c1-61 26-98 85-98zm52 81c6-60-76-77-97-28-3 7-6 17-6 28h103" id="ab"/><g id="c"><use transform="matrix(0.05,0,0,0.05,0,0)" xlink:href="#Y"/><use transform="matrix(0.05,0,0,0.05,9,0)" xlink:href="#Z"/><use transform="matrix(0.05,0,0,0.05,19,0)" xlink:href="#aa"/><use transform="matrix(0.05,0,0,0.05,28,0)" xlink:href="#aa"/><use transform="matrix(0.05,0,0,0.05,37,0)" xlink:href="#ab"/><use transform="matrix(0.05,0,0,0.05,47,0)" xlink:href="#Y"/><use transform="matrix(0.05,0,0,0.05,56,0)" xlink:href="#Y"/></g><path fill="#333" d="M177-190C167-65 218 103 67 71c-23-6-38-20-44-43l32-5c15 47 100 32 89-28v-30C133-14 115 1 83 1 29 1 15-40 15-95c0-56 16-97 71-98 29-1 48 16 59 35 1-10 0-23 2-32h30zM94-22c36 0 50-32 50-73 0-42-14-75-50-75-39 0-46 34-46 75s6 73 46 73" id="ac"/><path fill="#333" d="M24-231v-30h32v30H24zM24 0v-190h32V0H24" id="ad"/><path fill="#333" d="M59-47c-2 24 18 29 38 22v24C64 9 27 4 27-40v-127H5v-23h24l9-43h21v43h35v23H59v120" id="ae"/><g id="d"><use transform="matrix(0.043827160493827164,0,0,0.043827160493827164,0,0)" xlink:href="#ac"/><use transform="matrix(0.043827160493827164,0,0,0.043827160493827164,8.765432098765432,0)" xlink:href="#ad"/><use transform="matrix(0.043827160493827164,0,0,0.043827160493827164,12.227777777777778,0)" xlink:href="#ae"/></g><path fill="#333" d="M108 0H70L1-190h34L89-25l56-165h34" id="af"/><path fill="#333" d="M117-194c89-4 53 116 60 194h-32v-121c0-31-8-49-39-48C34-167 62-67 57 0H25l-1-190h30c1 10-1 24 2 32 11-22 29-35 61-36" id="ag"/><g id="e"><use transform="matrix(0.043827160493827164,0,0,0.043827160493827164,0,0)" xlink:href="#ab"/><use transform="matrix(0.043827160493827164,0,0,0.043827160493827164,8.765432098765432,0)" xlink:href="#af"/><use transform="matrix(0.043827160493827164,0,0,0.043827160493827164,16.654320987654323,0)" xlink:href="#ab"/><use transform="matrix(0.043827160493827164,0,0,0.043827160493827164,25.419753086419753,0)" xlink:href="#ag"/><use transform="matrix(0.043827160493827164,0,0,0.043827160493827164,34.18518518518518,0)" xlink:href="#ae"/></g><path fill="#a9afb8" d="M76-208v77h127v40H76V0H24v-248h183v40H76" id="ah"/><path fill="#a9afb8" d="M25 0v-261h50V0H25" id="ai"/><path fill="#a9afb8" d="M110-194c64 0 96 36 96 99 0 64-35 99-97 99-61 0-95-36-95-99 0-62 34-99 96-99zm-1 164c35 0 45-28 45-65 0-40-10-65-43-65-34 0-45 26-45 65 0 36 10 65 43 65" id="aj"/><path fill="#a9afb8" d="M231 0h-52l-39-155L100 0H48L-1-190h46L77-45c9-52 24-97 36-145h53l37 145 32-145h46" id="ak"/><path fill="#a9afb8" d="M190-63c-7 42-38 67-86 67-59 0-84-38-90-98-12-110 154-137 174-36l-49 2c-2-19-15-32-35-32-30 0-35 28-38 64-6 74 65 87 74 30" id="al"/><path fill="#a9afb8" d="M114-157C55-157 80-60 75 0H25v-261h50l-1 109c12-26 28-41 61-42 86-1 58 113 63 194h-50c-7-57 23-157-34-157" id="am"/><path fill="#a9afb8" d="M133-34C117-15 103 5 69 4 32 3 11-16 11-54c-1-60 55-63 116-61 1-26-3-47-28-47-18 1-26 9-28 27l-52-2c7-38 36-58 82-57s74 22 75 68l1 82c-1 14 12 18 25 15v27c-30 8-71 5-69-32zm-48 3c29 0 43-24 42-57-32 0-66-3-65 30 0 17 8 27 23 27" id="an"/><path fill="#a9afb8" d="M135-150c-39-12-60 13-60 57V0H25l-1-190h47c2 13-1 29 3 40 6-28 27-53 61-41v41" id="ao"/><path fill="#a9afb8" d="M115-3C79 11 28 4 28-45v-112H4v-33h27l15-45h31v45h36v33H77v99c-1 23 16 31 38 25v30" id="ap"/><g id="f"><use transform="matrix(0.0728395061728395,0,0,0.0728395061728395,0,0)" xlink:href="#ah"/><use transform="matrix(0.0728395061728395,0,0,0.0728395061728395,15.95185185185185,0)" xlink:href="#ai"/><use transform="matrix(0.0728395061728395,0,0,0.0728395061728395,23.235802469135802,0)" xlink:href="#aj"/><use transform="matrix(0.0728395061728395,0,0,0.0728395061728395,39.187654320987654,0)" xlink:href="#ak"/><use transform="matrix(0.0728395061728395,0,0,0.0728395061728395,59.582716049382704,0)" xlink:href="#al"/><use transform="matrix(0.0728395061728395,0,0,0.0728395061728395,74.15061728395061,0)" xlink:href="#am"/><use transform="matrix(0.0728395061728395,0,0,0.0728395061728395,90.10246913580247,0)" xlink:href="#an"/><use transform="matrix(0.0728395061728395,0,0,0.0728395061728395,104.67037037037036,0)" xlink:href="#ao"/><use transform="matrix(0.0728395061728395,0,0,0.0728395061728395,114.8679012345679,0)" xlink:href="#ap"/></g><path fill="#a9afb8" d="M141-36C126-15 110 5 73 4 37 3 15-17 15-53c-1-64 63-63 125-63 3-35-9-54-41-54-24 1-41 7-42 31l-33-3c5-37 33-52 76-52 45 0 72 20 72 64v82c-1 20 7 32 28 27v20c-31 9-61-2-59-35zM48-53c0 20 12 33 32 33 41-3 63-29 60-74-43 2-92-5-92 41" id="aq"/><path fill="#a9afb8" d="M117-194c89-4 53 116 60 194h-32v-121c0-31-8-49-39-48C34-167 62-67 57 0H25l-1-190h30c1 10-1 24 2 32 11-22 29-35 61-36" id="ar"/><path fill="#a9afb8" d="M85-194c31 0 48 13 60 33l-1-100h32l1 261h-30c-2-10 0-23-3-31C134-8 116 4 85 4 32 4 16-35 15-94c0-66 23-100 70-100zm9 24c-40 0-46 34-46 75 0 40 6 74 45 74 42 0 51-32 51-76 0-42-9-74-50-73" id="as"/><path fill="#a9afb8" d="M100-194c63 0 86 42 84 106H49c0 40 14 67 53 68 26 1 43-12 49-29l28 8c-11 28-37 45-77 45C44 4 14-33 15-96c1-61 26-98 85-98zm52 81c6-60-76-77-97-28-3 7-6 17-6 28h103" id="at"/><path fill="#a9afb8" d="M114-163C36-179 61-72 57 0H25l-1-190h30c1 12-1 29 2 39 6-27 23-49 58-41v29" id="au"/><path fill="#a9afb8" d="M135-143c-3-34-86-38-87 0 15 53 115 12 119 90S17 21 10-45l28-5c4 36 97 45 98 0-10-56-113-15-118-90-4-57 82-63 122-42 12 7 21 19 24 35" id="av"/><path fill="#a9afb8" d="M100-194c62-1 85 37 85 99 1 63-27 99-86 99S16-35 15-95c0-66 28-99 85-99zM99-20c44 1 53-31 53-75 0-43-8-75-51-75s-53 32-53 75 10 74 51 75" id="aw"/><g id="h"><use transform="matrix(0.04248971193415638,0,0,0.04248971193415638,0,0)" xlink:href="#aq"/><use transform="matrix(0.04248971193415638,0,0,0.04248971193415638,8.497942386831275,0)" xlink:href="#ar"/><use transform="matrix(0.04248971193415638,0,0,0.04248971193415638,16.99588477366255,0)" xlink:href="#as"/><use transform="matrix(0.04248971193415638,0,0,0.04248971193415638,25.493827160493822,0)" xlink:href="#at"/><use transform="matrix(0.04248971193415638,0,0,0.04248971193415638,33.9917695473251,0)" xlink:href="#au"/><use transform="matrix(0.04248971193415638,0,0,0.04248971193415638,39.048045267489705,0)" xlink:href="#av"/><use transform="matrix(0.04248971193415638,0,0,0.04248971193415638,46.69619341563785,0)" xlink:href="#aw"/><use transform="matrix(0.04248971193415638,0,0,0.04248971193415638,55.19413580246913,0)" xlink:href="#ar"/></g><path fill="#a9afb8" d="M210-169c-67 3-38 105-44 169h-31v-121c0-29-5-50-35-48C34-165 62-65 56 0H25l-1-190h30c1 10-1 24 2 32 10-44 99-50 107 0 11-21 27-35 58-36 85-2 47 119 55 194h-31v-121c0-29-5-49-35-48" id="ax"/><g id="i"><use transform="matrix(0.04248971193415638,0,0,0.04248971193415638,0,0)" xlink:href="#ax"/><use transform="matrix(0.04248971193415638,0,0,0.04248971193415638,12.704423868312757,0)" xlink:href="#aq"/><use transform="matrix(0.04248971193415638,0,0,0.04248971193415638,21.20236625514403,0)" xlink:href="#ar"/><use transform="matrix(0.04248971193415638,0,0,0.04248971193415638,29.7003086419753,0)" xlink:href="#ar"/></g><path fill="#a9afb8" d="M32 76v-337h29V76H32" id="ay"/><use transform="matrix(0.04248971193415638,0,0,0.04248971193415638,0,0)" xlink:href="#ay" id="j"/><path fill="#a9afb8" d="M185-189c-5-48-123-54-124 2 14 75 158 14 163 119 3 78-121 87-175 55-17-10-28-26-33-46l33-7c5 56 141 63 141-1 0-78-155-14-162-118-5-82 145-84 179-34 5 7 8 16 11 25" id="az"/><path fill="#a9afb8" d="M115-194c55 1 70 41 70 98S169 2 115 4C84 4 66-9 55-30l1 105H24l-1-265h31l2 30c10-21 28-34 59-34zm-8 174c40 0 45-34 45-75s-6-73-45-74c-42 0-51 32-51 76 0 43 10 73 51 73" id="aA"/><path fill="#a9afb8" d="M59-47c-2 24 18 29 38 22v24C64 9 27 4 27-40v-127H5v-23h24l9-43h21v43h35v23H59v120" id="aB"/><path fill="#a9afb8" d="M115-194c53 0 69 39 70 98 0 66-23 100-70 100C84 3 66-7 56-30L54 0H23l1-261h32v101c10-23 28-34 59-34zm-8 174c40 0 45-34 45-75 0-40-5-75-45-74-42 0-51 32-51 76 0 43 10 73 51 73" id="aC"/><g id="k"><use transform="matrix(0.04248971193415638,0,0,0.04248971193415638,0,0)" xlink:href="#az"/><use transform="matrix(0.04248971193415638,0,0,0.04248971193415638,10.19753086419753,0)" xlink:href="#at"/><use transform="matrix(0.04248971193415638,0,0,0.04248971193415638,18.695473251028805,0)" xlink:href="#aA"/><use transform="matrix(0.04248971193415638,0,0,0.04248971193415638,27.193415637860078,0)" xlink:href="#aB"/><use transform="matrix(0.04248971193415638,0,0,0.04248971193415638,31.442386831275712,0)" xlink:href="#at"/><use transform="matrix(0.04248971193415638,0,0,0.04248971193415638,39.94032921810699,0)" xlink:href="#ax"/><use transform="matrix(0.04248971193415638,0,0,0.04248971193415638,52.64475308641975,0)" xlink:href="#aC"/><use transform="matrix(0.04248971193415638,0,0,0.04248971193415638,61.142695473251024,0)" xlink:href="#at"/><use transform="matrix(0.04248971193415638,0,0,0.04248971193415638,69.6406378600823,0)" xlink:href="#au"/></g><path fill="#a9afb8" d="M99-251c64 0 84 50 84 122C183-37 130 33 47-8c-14-7-20-23-25-40l30-5c6 39 69 39 84 7 9-19 16-44 16-74-10 22-31 35-62 35-49 0-73-33-73-83 0-54 28-83 82-83zm-1 141c31-1 51-18 51-49 0-36-14-67-51-67-34 0-49 23-49 58 0 34 15 58 49 58" id="aD"/><path fill="#a9afb8" d="M68-38c1 34 0 65-14 84H32c9-13 17-26 17-46H33v-38h35" id="aE"/><g id="l"><use transform="matrix(0.04248971193415638,0,0,0.04248971193415638,0,0)" xlink:href="#aD"/><use transform="matrix(0.04248971193415638,0,0,0.04248971193415638,8.497942386831275,0)" xlink:href="#aE"/></g><path fill="#a9afb8" d="M101-251c82-7 93 87 43 132L82-64C71-53 59-42 53-27h129V0H18c2-99 128-94 128-182 0-28-16-43-45-43s-46 15-49 41l-32-3c6-41 34-60 81-64" id="aF"/><path fill="#a9afb8" d="M101-251c68 0 85 55 85 127S166 4 100 4C33 4 14-52 14-124c0-73 17-127 87-127zm-1 229c47 0 54-49 54-102s-4-102-53-102c-51 0-55 48-55 102 0 53 5 102 54 102" id="aG"/><g id="m"><use transform="matrix(0.04248971193415638,0,0,0.04248971193415638,0,0)" xlink:href="#aF"/><use transform="matrix(0.04248971193415638,0,0,0.04248971193415638,8.497942386831275,0)" xlink:href="#aG"/><use transform="matrix(0.04248971193415638,0,0,0.04248971193415638,16.99588477366255,0)" xlink:href="#aF"/><use transform="matrix(0.04248971193415638,0,0,0.04248971193415638,25.493827160493822,0)" xlink:href="#aG"/></g><path fill="#333" d="M100-194c62-1 85 37 85 99 1 63-27 99-86 99S16-35 15-95c0-66 28-99 85-99zM99-20c44 1 53-31 53-75 0-43-8-75-51-75s-53 32-53 75 10 74 51 75" id="aH"/><path fill="#333" d="M85-194c31 0 48 13 60 33l-1-100h32l1 261h-30c-2-10 0-23-3-31C134-8 116 4 85 4 32 4 16-35 15-94c0-66 23-100 70-100zm9 24c-40 0-46 34-46 75 0 40 6 74 45 74 42 0 51-32 51-76 0-42-9-74-50-73" id="aI"/><g id="n"><use transform="matrix(0.05,0,0,0.05,0,0)" xlink:href="#aa"/><use transform="matrix(0.05,0,0,0.05,9,0)" xlink:href="#aH"/><use transform="matrix(0.05,0,0,0.05,19,0)" xlink:href="#aI"/><use transform="matrix(0.05,0,0,0.05,29,0)" xlink:href="#ab"/></g><path fill="#333" d="M114-163C36-179 61-72 57 0H25l-1-190h30c1 12-1 29 2 39 6-27 23-49 58-41v29" id="aJ"/><path fill="#333" d="M141-36C126-15 110 5 73 4 37 3 15-17 15-53c-1-64 63-63 125-63 3-35-9-54-41-54-24 1-41 7-42 31l-33-3c5-37 33-52 76-52 45 0 72 20 72 64v82c-1 20 7 32 28 27v20c-31 9-61-2-59-35zM48-53c0 20 12 33 32 33 41-3 63-29 60-74-43 2-92-5-92 41" id="aK"/><g id="o"><use transform="matrix(0.05,0,0,0.05,0,0)" xlink:href="#aa"/><use transform="matrix(0.05,0,0,0.05,9,0)" xlink:href="#aH"/><use transform="matrix(0.05,0,0,0.05,19,0)" xlink:href="#af"/><use transform="matrix(0.05,0,0,0.05,28,0)" xlink:href="#ab"/><use transform="matrix(0.05,0,0,0.05,38,0)" xlink:href="#aJ"/><use transform="matrix(0.05,0,0,0.05,43.95,0)" xlink:href="#aK"/><use transform="matrix(0.05,0,0,0.05,53.95,0)" xlink:href="#ac"/><use transform="matrix(0.05,0,0,0.05,63.95,0)" xlink:href="#ab"/></g><g id="p"><use transform="matrix(0.05,0,0,0.05,0,0)" xlink:href="#Y"/><use transform="matrix(0.05,0,0,0.05,9,0)" xlink:href="#ae"/><use transform="matrix(0.05,0,0,0.05,14,0)" xlink:href="#aK"/><use transform="matrix(0.05,0,0,0.05,24,0)" xlink:href="#ae"/><use transform="matrix(0.05,0,0,0.05,29,0)" xlink:href="#ad"/><use transform="matrix(0.05,0,0,0.05,32.95,0)" xlink:href="#aa"/></g><path fill="#333" d="M24 0v-261h32V0H24" id="aL"/><path fill="#333" d="M179-190L93 31C79 59 56 82 12 73V49c39 6 53-20 64-50L1-190h34L92-34l54-156h33" id="aM"/><g id="q"><use transform="matrix(0.05,0,0,0.05,0,0)" xlink:href="#aK"/><use transform="matrix(0.05,0,0,0.05,10,0)" xlink:href="#ag"/><use transform="matrix(0.05,0,0,0.05,20,0)" xlink:href="#aK"/><use transform="matrix(0.05,0,0,0.05,30,0)" xlink:href="#aL"/><use transform="matrix(0.05,0,0,0.05,33.95,0)" xlink:href="#aM"/><use transform="matrix(0.05,0,0,0.05,42.95,0)" xlink:href="#Y"/><use transform="matrix(0.05,0,0,0.05,51.95,0)" xlink:href="#ad"/><use transform="matrix(0.05,0,0,0.05,55.900000000000006,0)" xlink:href="#Y"/></g><g id="r"><use transform="matrix(0.05,0,0,0.05,0,0)" xlink:href="#Z"/><use transform="matrix(0.05,0,0,0.05,10,0)" xlink:href="#ag"/><use transform="matrix(0.05,0,0,0.05,20,0)" xlink:href="#ad"/><use transform="matrix(0.05,0,0,0.05,23.95,0)" xlink:href="#ae"/></g><g id="s"><use transform="matrix(0.05,0,0,0.05,0,0)" xlink:href="#ae"/><use transform="matrix(0.05,0,0,0.05,5,0)" xlink:href="#ab"/><use transform="matrix(0.05,0,0,0.05,15,0)" xlink:href="#Y"/><use transform="matrix(0.05,0,0,0.05,24,0)" xlink:href="#ae"/></g><path fill="#fff" d="M194-120c59 52 2 134-86 124-53-6-90-18-98-63l31-7c8 30 29 43 70 43 46 0 84-17 71-62-32-43-135-20-137-98-3-89 178-90 191-16l-30 9c-8-48-127-53-127 5 0 53 81 35 115 65" id="aN"/><path fill="#fff" d="M67-158c22-48 132-52 116 29L158 0h-32l25-140c3-38-53-32-70-12C52-117 51-52 38 0H6l36-190h30" id="aO"/><path fill="#fff" d="M165-48c-4 18 1 34 23 27l-3 20c-29 8-62 0-52-35h-2C116-14 99 4 63 4 30 4 8-16 8-49c0-68 71-67 138-67 10-26 0-56-31-54-26 1-42 9-47 31l-32-5c8-67 160-71 144 15-5 28-9 54-15 81zM42-50c3 52 80 24 89-6 7-12 7-24 11-38-47 1-103-4-100 44" id="aP"/><path fill="#fff" d="M133-28C103 26-5 8 13-77c13-62 24-115 90-117 29-1 46 15 56 35 2-12 6-24 8-34h31L144 75h-31zM45-64c-2 27 10 43 35 43 54-1 69-50 69-103 0-29-15-46-42-46-53-1-58 58-62 106" id="aQ"/><path fill="#fff" d="M67 3c-93-2-31-127-26-193h32L48-50c-3 39 53 32 70 12 30-34 30-101 43-152h32L157 0h-30c1-10 6-24 4-33-14 20-29 37-64 36" id="aR"/><path fill="#fff" d="M68-162c25-46 127-43 121 31C183-60 169 1 98 4 69 5 53-11 43-31L36 0H5l52-261h31zm88 36c2-27-9-43-34-43-55 0-70 51-70 103 0 29 15 45 43 46 52 0 58-58 61-106" id="aS"/><g id="t"><use transform="matrix(0.05,0,0,0.05,0,0)" xlink:href="#aN"/><use transform="matrix(0.05,0,0,0.05,12,0)" xlink:href="#R"/><use transform="matrix(0.05,0,0,0.05,22,0)" xlink:href="#aO"/><use transform="matrix(0.05,0,0,0.05,32,0)" xlink:href="#aP"/><use transform="matrix(0.05,0,0,0.05,42,0)" xlink:href="#U"/><use transform="matrix(0.05,0,0,0.05,47.95,0)" xlink:href="#aQ"/><use transform="matrix(0.05,0,0,0.05,57.95,0)" xlink:href="#aR"/><use transform="matrix(0.05,0,0,0.05,67.95,0)" xlink:href="#aS"/><use transform="matrix(0.05,0,0,0.05,77.95,0)" xlink:href="#T"/></g><path fill="#fff" d="M6 0l50-261h32L37 0H6" id="aT"/><path fill="#fff" d="M51-54c-9 22 5 41 31 30L79-1C43 14 10-4 19-52l22-115H19l5-23h22l19-43h21l-9 43h35l-4 23H73" id="aU"/><path fill="#fff" d="M198-190L69 30C53 58 25 83-20 72c4-11-1-27 19-22 33-1 43-29 59-52L20-190h32L79-34l84-156h35" id="aV"/><g id="u"><use transform="matrix(0.05,0,0,0.05,0,0)" xlink:href="#aQ"/><use transform="matrix(0.05,0,0,0.05,10,0)" xlink:href="#aR"/><use transform="matrix(0.05,0,0,0.05,20,0)" xlink:href="#aP"/><use transform="matrix(0.05,0,0,0.05,30,0)" xlink:href="#aT"/><use transform="matrix(0.05,0,0,0.05,33.95,0)" xlink:href="#W"/><use transform="matrix(0.05,0,0,0.05,37.900000000000006,0)" xlink:href="#aU"/><use transform="matrix(0.05,0,0,0.05,42.900000000000006,0)" xlink:href="#aV"/></g><path fill="#fff" d="M103-194c29 0 47 14 56 36 2-11 5-23 8-32h30L160-5C157 61 82 97 21 62 9 55 4 45 1 30l28-7c7 42 83 31 92-3 4-16 9-38 13-55-13 20-29 36-62 36-40 0-60-25-60-64 0-71 23-131 91-131zm4 24c-53 0-58 54-61 104-2 27 10 44 36 44 49 0 65-50 67-102 1-29-15-46-42-46" id="aW"/><g id="v"><use transform="matrix(0.05,0,0,0.05,0,0)" xlink:href="#aW"/><use transform="matrix(0.05,0,0,0.05,10,0)" xlink:href="#aP"/><use transform="matrix(0.05,0,0,0.05,20,0)" xlink:href="#aU"/><use transform="matrix(0.05,0,0,0.05,25,0)" xlink:href="#T"/></g><path fill="#fff" d="M173 0L80-213 41 0H11l48-248h37l94 214 40-214h30L212 0h-39" id="aX"/><path fill="#fff" d="M76-167L44 0H12l33-167H18l4-23h27c3-47 25-81 82-69l-4 24c-35-8-44 15-46 45h37l-5 23H76" id="aY"/><g id="w"><use transform="matrix(0.05,0,0,0.05,0,0)" xlink:href="#aX"/><use transform="matrix(0.05,0,0,0.05,12.950000000000001,0)" xlink:href="#R"/><use transform="matrix(0.05,0,0,0.05,22.950000000000003,0)" xlink:href="#aU"/><use transform="matrix(0.05,0,0,0.05,27.950000000000003,0)" xlink:href="#W"/><use transform="matrix(0.05,0,0,0.05,31.900000000000002,0)" xlink:href="#aY"/><use transform="matrix(0.05,0,0,0.05,36.900000000000006,0)" xlink:href="#aV"/></g><path fill="#333" d="M190 0L58-211 59 0H30v-248h39L202-35l-2-213h31V0h-41" id="aZ"/><path fill="#333" d="M140-251c81 0 123 46 123 126C263-46 219 4 140 4 59 4 17-45 17-125s42-126 123-126zm0 227c63 0 89-41 89-101s-29-99-89-99c-61 0-89 39-89 99S79-25 140-24" id="ba"/><g id="x"><use transform="matrix(0.05,0,0,0.05,0,0)" xlink:href="#aZ"/><use transform="matrix(0.05,0,0,0.05,12.950000000000001,0)" xlink:href="#ba"/></g><path fill="#333" d="M137-103V0h-34v-103L8-248h37l75 118 75-118h37" id="bb"/><path fill="#333" d="M30 0v-248h187v28H63v79h144v27H63v87h162V0H30" id="bc"/><path fill="#333" d="M185-189c-5-48-123-54-124 2 14 75 158 14 163 119 3 78-121 87-175 55-17-10-28-26-33-46l33-7c5 56 141 63 141-1 0-78-155-14-162-118-5-82 145-84 179-34 5 7 8 16 11 25" id="bd"/><g id="y"><use transform="matrix(0.05,0,0,0.05,0,0)" xlink:href="#bb"/><use transform="matrix(0.05,0,0,0.05,12,0)" xlink:href="#bc"/><use transform="matrix(0.05,0,0,0.05,24,0)" xlink:href="#bd"/></g><path fill="#fff" d="M248-111c6-24 9-61-24-58-72 9-57 108-77 169h-31l26-142c3-37-50-30-64-10C52-115 50-51 37 0H6l36-190h30c-1 10-6 24-4 32 13-43 101-52 105 5 13-22 29-41 61-41 90 0 28 129 23 194h-31" id="be"/><g id="z"><use transform="matrix(0.05,0,0,0.05,0,0)" xlink:href="#aP"/><use transform="matrix(0.05,0,0,0.05,10,0)" xlink:href="#aR"/><use transform="matrix(0.05,0,0,0.05,20,0)" xlink:href="#aU"/><use transform="matrix(0.05,0,0,0.05,25,0)" xlink:href="#R"/><use transform="matrix(0.05,0,0,0.05,35,0)" xlink:href="#be"/><use transform="matrix(0.05,0,0,0.05,49.95,0)" xlink:href="#aP"/><use transform="matrix(0.05,0,0,0.05,59.95,0)" xlink:href="#aU"/><use transform="matrix(0.05,0,0,0.05,64.95,0)" xlink:href="#W"/><use transform="matrix(0.05,0,0,0.05,68.9,0)" xlink:href="#R"/><use transform="matrix(0.05,0,0,0.05,78.9,0)" xlink:href="#aO"/></g><path fill="#fff" d="M55-144c13 50 104 24 104 88C159 21 15 23 1-39l26-10c6 40 102 42 102-4-13-50-104-23-104-87 0-71 143-71 148-8l-29 4c-5-35-85-37-89 0" id="bf"/><g id="A"><use transform="matrix(0.05,0,0,0.05,0,0)" xlink:href="#aU"/><use transform="matrix(0.05,0,0,0.05,5,0)" xlink:href="#T"/><use transform="matrix(0.05,0,0,0.05,15,0)" xlink:href="#bf"/><use transform="matrix(0.05,0,0,0.05,24,0)" xlink:href="#aU"/></g><path fill="#fff" d="M187 0l-14-72H61L19 0h-37l149-248h38L221 0h-34zm-19-99l-22-123L76-99h92" id="bg"/><path fill="#fff" d="M238-179c0 84-86 86-175 82L45 0H11l48-248c82 0 179-12 179 69zm-34 1c0-53-64-42-116-43l-19 98c63 0 135 9 135-55" id="bh"/><path fill="#fff" d="M14 0l48-248h34L48 0H14" id="bi"/><g id="B"><use transform="matrix(0.05,0,0,0.05,0,0)" xlink:href="#bg"/><use transform="matrix(0.05,0,0,0.05,12,0)" xlink:href="#bh"/><use transform="matrix(0.05,0,0,0.05,24,0)" xlink:href="#bi"/></g><path fill="#fff" d="M87-220l-18 92h140l-5 28H64L45 0H11l48-248h178l-5 28H87" id="bj"/><g id="C"><use transform="matrix(0.05,0,0,0.05,0,0)" xlink:href="#bj"/><use transform="matrix(0.05,0,0,0.05,10.950000000000001,0)" xlink:href="#U"/><use transform="matrix(0.05,0,0,0.05,16.900000000000002,0)" xlink:href="#R"/><use transform="matrix(0.05,0,0,0.05,26.900000000000002,0)" xlink:href="#aO"/><use transform="matrix(0.05,0,0,0.05,36.900000000000006,0)" xlink:href="#aU"/></g><path fill="#fff" d="M222 0l43-216c-8 16-17 34-26 49L143 0h-22L81-216 41 0H11l48-248h42l38 208 116-208h45L252 0h-30" id="bk"/><path fill="#fff" d="M249-183c0 48-29 72-75 77L221 0h-36l-43-103H65L45 0H11l48-248c83 2 190-17 190 65zm-34 3c0-55-74-39-127-41l-18 92c63-1 145 13 145-51" id="bl"/><g id="D"><use transform="matrix(0.05,0,0,0.05,0,0)" xlink:href="#bk"/><use transform="matrix(0.05,0,0,0.05,14.950000000000001,0)" xlink:href="#bl"/></g><path fill="#fff" d="M67-158c15-20 31-36 64-36 94 0 33 127 27 194h-32l25-140c3-38-53-32-70-12C52-117 51-51 37 0H6l51-261h31" id="bm"/><g id="E"><use transform="matrix(0.05,0,0,0.05,0,0)" xlink:href="#aS"/><use transform="matrix(0.05,0,0,0.05,10,0)" xlink:href="#U"/><use transform="matrix(0.05,0,0,0.05,15.949999999999998,0)" xlink:href="#aP"/><use transform="matrix(0.05,0,0,0.05,25.950000000000003,0)" xlink:href="#aO"/><use transform="matrix(0.05,0,0,0.05,35.95,0)" xlink:href="#Q"/><use transform="matrix(0.05,0,0,0.05,44.95,0)" xlink:href="#bm"/></g><path fill="#fff" d="M125-24c46 0 70-25 89-51l25 16C214-24 183 4 123 4 8 4-5-146 60-208c32-50 158-61 191-5 5 7 9 14 11 22l-32 10c-9-28-33-43-69-43-74 0-108 51-108 125 0 46 24 75 72 75" id="bn"/><g id="F"><use transform="matrix(0.05,0,0,0.05,0,0)" xlink:href="#bn"/><use transform="matrix(0.05,0,0,0.05,12.950000000000001,0)" xlink:href="#bi"/></g><path fill="#fff" d="M-20 4l123-265h28L8 4h-28" id="bo"/><path fill="#fff" d="M67-162c32-53 139-36 121 50C175-51 163 2 97 4 68 4 52-11 42-31 38 6 28 39 22 75H-9l50-265h29c-1 10 0 20-3 28zm89 36c0-26-10-43-35-43-54 0-67 50-69 103-1 29 14 45 42 46 53 0 62-58 62-106" id="bp"/><g id="G"><use transform="matrix(0.05,0,0,0.05,0,0)" xlink:href="#aS"/><use transform="matrix(0.05,0,0,0.05,10,0)" xlink:href="#aR"/><use transform="matrix(0.05,0,0,0.05,20,0)" xlink:href="#W"/><use transform="matrix(0.05,0,0,0.05,23.95,0)" xlink:href="#aT"/><use transform="matrix(0.05,0,0,0.05,27.899999999999995,0)" xlink:href="#S"/><use transform="matrix(0.05,0,0,0.05,37.9,0)" xlink:href="#bo"/><use transform="matrix(0.05,0,0,0.05,42.9,0)" xlink:href="#S"/><use transform="matrix(0.05,0,0,0.05,52.900000000000006,0)" xlink:href="#T"/><use transform="matrix(0.05,0,0,0.05,62.900000000000006,0)" xlink:href="#bp"/><use transform="matrix(0.05,0,0,0.05,72.9,0)" xlink:href="#aT"/><use transform="matrix(0.05,0,0,0.05,76.85000000000001,0)" xlink:href="#R"/><use transform="matrix(0.05,0,0,0.05,86.85000000000001,0)" xlink:href="#aV"/></g><g id="H"><use transform="matrix(0.05,0,0,0.05,0,0)" xlink:href="#aU"/><use transform="matrix(0.05,0,0,0.05,5,0)" xlink:href="#T"/><use transform="matrix(0.05,0,0,0.05,15,0)" xlink:href="#bf"/><use transform="matrix(0.05,0,0,0.05,24,0)" xlink:href="#aU"/></g><g id="I"><use transform="matrix(0.05,0,0,0.05,0,0)" xlink:href="#T"/><use transform="matrix(0.05,0,0,0.05,10,0)" xlink:href="#aO"/><use transform="matrix(0.05,0,0,0.05,20,0)" xlink:href="#V"/><use transform="matrix(0.05,0,0,0.05,29,0)" xlink:href="#W"/><use transform="matrix(0.05,0,0,0.05,32.95,0)" xlink:href="#U"/><use transform="matrix(0.05,0,0,0.05,38.900000000000006,0)" xlink:href="#R"/><use transform="matrix(0.05,0,0,0.05,48.900000000000006,0)" xlink:href="#aO"/><use transform="matrix(0.05,0,0,0.05,58.900000000000006,0)" xlink:href="#be"/><use transform="matrix(0.05,0,0,0.05,73.85000000000001,0)" xlink:href="#T"/><use transform="matrix(0.05,0,0,0.05,83.85000000000001,0)" xlink:href="#aO"/><use transform="matrix(0.05,0,0,0.05,93.85000000000001,0)" xlink:href="#aU"/></g><path fill="#fff" d="M9 0l6-27h63l36-188-63 39 6-31 66-41h29L110-27h60l-5 27H9" id="bq"/><use transform="matrix(0.05,0,0,0.05,0,0)" xlink:href="#bq" id="J"/><g id="K"><use transform="matrix(0.05,0,0,0.05,0,0)" xlink:href="#bb"/><use transform="matrix(0.05,0,0,0.05,12,0)" xlink:href="#bc"/><use transform="matrix(0.05,0,0,0.05,24,0)" xlink:href="#Y"/></g><path fill="#fff" d="M123-251c66 0 92 69 53 113C138-94 73-75 39-27h128l-5 27H-2c17-92 123-93 159-163 14-28-1-64-36-62-29 2-46 17-54 41l-30-6c13-36 37-61 86-61" id="br"/><use transform="matrix(0.05,0,0,0.05,0,0)" xlink:href="#br" id="L"/><g id="M"><use transform="matrix(0.05,0,0,0.05,0,0)" xlink:href="#S"/><use transform="matrix(0.05,0,0,0.05,10,0)" xlink:href="#T"/><use transform="matrix(0.05,0,0,0.05,20,0)" xlink:href="#V"/></g><g id="N"><use transform="matrix(0.05,0,0,0.05,0,0)" xlink:href="#aS"/><use transform="matrix(0.05,0,0,0.05,10,0)" xlink:href="#U"/><use transform="matrix(0.05,0,0,0.05,15.949999999999998,0)" xlink:href="#aP"/><use transform="matrix(0.05,0,0,0.05,25.950000000000003,0)" xlink:href="#aO"/><use transform="matrix(0.05,0,0,0.05,35.95,0)" xlink:href="#Q"/><use transform="matrix(0.05,0,0,0.05,44.95,0)" xlink:href="#bm"/></g><path fill="#fff" d="M248-139C247-14 144 9 11 0l48-248c105-6 190 8 189 109zm-34 0c1-70-52-87-126-82L50-27c98 7 163-21 164-112" id="bs"/><g id="O"><use transform="matrix(0.05,0,0,0.05,0,0)" xlink:href="#bh"/><use transform="matrix(0.05,0,0,0.05,12,0)" xlink:href="#bl"/><use transform="matrix(0.05,0,0,0.05,24.950000000000003,0)" xlink:href="#bs"/></g><g id="P"><use transform="matrix(0.05,0,0,0.05,0,0)" xlink:href="#T"/><use transform="matrix(0.05,0,0,0.05,10,0)" xlink:href="#aO"/><use transform="matrix(0.05,0,0,0.05,20,0)" xlink:href="#V"/><use transform="matrix(0.05,0,0,0.05,29,0)" xlink:href="#W"/><use transform="matrix(0.05,0,0,0.05,32.95,0)" xlink:href="#U"/><use transform="matrix(0.05,0,0,0.05,38.900000000000006,0)" xlink:href="#R"/><use transform="matrix(0.05,0,0,0.05,48.900000000000006,0)" xlink:href="#aO"/><use transform="matrix(0.05,0,0,0.05,58.900000000000006,0)" xlink:href="#be"/><use transform="matrix(0.05,0,0,0.05,73.85000000000001,0)" xlink:href="#T"/><use transform="matrix(0.05,0,0,0.05,83.85000000000001,0)" xlink:href="#aO"/><use transform="matrix(0.05,0,0,0.05,93.85000000000001,0)" xlink:href="#aU"/></g></defs></g></svg>